<svg width="42" height="42" viewBox="0 0 42 42" fill="none" xmlns="http://www.w3.org/2000/svg">
<path d="M41.4887 9.36953L39.0197 6.90071L36.5504 4.43155C35.8687 3.7497 34.7632 3.7497 34.0813 4.43155L29.1431 9.36953C28.8157 9.69692 28.6316 10.1411 28.6316 10.6041C28.6316 11.0671 28.8156 11.5111 29.1431 11.8386L30.3777 13.0732L25.4395 18.0114L26.674 19.2459L26.674 19.246L27.9084 20.4803L32.8466 15.5421L34.0811 16.7766C34.422 17.1175 34.8688 17.2881 35.3156 17.2881C35.7623 17.2881 36.2092 17.1175 36.5501 16.7766L41.4883 11.8384C41.8157 11.511 41.9998 11.0668 41.9998 10.6039C42.0002 10.1411 41.8162 9.69701 41.4887 9.36953Z" fill="#BDFDFF"/>
<path d="M29.9693 22.5411C29.9684 22.5402 29.9676 22.5391 29.9667 22.5383L27.909 20.4805L26.6747 19.2462L26.6746 19.2461L25.4401 18.0116L24.1088 16.6804L23.3824 15.954C23.1479 15.7195 22.863 15.5677 22.5629 15.4945C21.9901 15.3548 21.3608 15.5066 20.9133 15.954L20.6082 16.2589L14.6335 22.2337L12.5549 24.3123L10.8669 26.0001L7.42074 29.4463C4.92476 31.9425 4.92493 36.0039 7.42082 38.4999C8.62981 39.7088 10.2372 40.3745 11.9472 40.3746C11.9474 40.3746 11.9475 40.3746 11.9477 40.3746C13.6573 40.3746 15.2649 39.7088 16.474 38.4999L22.1479 32.8262L23.3824 31.5917L24.6169 30.3572L28.7321 26.242L29.9664 25.0075L29.9667 25.0075C30.2941 24.6801 30.4781 24.236 30.4781 23.773C30.4781 23.311 30.295 22.8683 29.9693 22.5411Z" fill="#5286FA"/>
<path d="M26.6745 19.2461L25.44 18.0116L24.1087 16.6804L23.3823 15.954C23.1479 15.7195 22.863 15.5677 22.5628 15.4945C21.9901 15.3548 21.3607 15.5066 20.9132 15.954L20.6082 16.2589L14.6334 22.2337L12.5548 24.3123L10.8668 26.0001L7.42074 29.4463C4.92476 31.9425 4.92493 36.0039 7.42082 38.4999L26.6745 19.2461Z" fill="#3D6DEB"/>
<path d="M26.6743 19.2462L39.0197 6.90071L36.5504 4.43155C35.8687 3.7497 34.7632 3.7497 34.0813 4.43155L29.1431 9.36953C28.8157 9.69692 28.6316 10.1411 28.6316 10.6041C28.6316 11.0671 28.8156 11.5111 29.1431 11.8386L30.3777 13.0732L25.4395 18.0114L26.6743 19.2462Z" fill="#9BC9FF"/>
<path d="M20.8613 5.20316C17.205 1.54668 11.6144 0.587238 6.95074 2.81514C6.43919 3.05943 6.07825 3.53669 5.98244 4.09533C5.88663 4.65388 6.06783 5.22425 6.46872 5.62505L12.2196 11.3759L10.9851 12.6104L9.75032 13.845L3.99957 8.09421C3.59884 7.69332 3.02741 7.51228 2.46984 7.60792C1.91112 7.70374 1.43394 8.06476 1.18965 8.57623C-1.03816 13.2402 -0.078475 18.8305 3.57768 22.4868C5.59098 24.5001 8.16235 25.7032 10.8668 26.0003L12.5546 24.3125L14.6332 22.2339L17.6208 19.2463L20.6079 16.2592L20.913 15.9542C21.3604 15.5068 21.9897 15.3551 22.5625 15.4947C22.8627 15.5679 23.1477 15.7198 23.382 15.9542L24.1084 16.6806C25.0985 12.557 23.9017 8.24367 20.8613 5.20316Z" fill="#ACABB1"/>
<path d="M36.8754 29.447L29.9699 22.5413C30.2957 22.8684 30.4787 23.3111 30.4787 23.773C30.4787 24.2361 30.2948 24.6802 29.9672 25.0075L29.967 25.0075L28.7326 26.242L26.675 28.2995L24.6174 30.3571L23.3829 31.5916L22.1484 32.8261L27.8222 38.5C29.0703 39.7478 30.7094 40.3717 32.3488 40.3717C33.9882 40.3717 35.6276 39.7477 36.8756 38.4997C38.0847 37.2906 38.7505 35.6831 38.7505 33.973C38.7504 32.2632 38.0846 30.6558 36.8754 29.447Z" fill="#ACABB1"/>
<path d="M9.7504 13.8449L3.99957 8.09415C3.59884 7.69326 3.02741 7.51221 2.46984 7.60786C1.91112 7.70368 1.43394 8.0647 1.18965 8.57617C-1.03816 13.2402 -0.078475 18.8305 3.57768 22.4867C5.59098 24.5 8.16235 25.7032 10.8668 26.0002L12.5546 24.3124L14.6332 22.2338L17.6208 19.2462L10.9851 12.6105L9.7504 13.8449Z" fill="#898890"/>
<path d="M24.6174 30.3572L23.3829 31.5917L22.1484 32.8262L27.8222 38.5001C29.0703 39.748 30.7094 40.3718 32.3488 40.3718C33.9882 40.3718 35.6276 39.7478 36.8756 38.4998L26.6753 28.2994L24.6174 30.3572Z" fill="#898890"/>
</svg>
