<svg width="42" height="42" viewBox="0 0 42 42" fill="none" xmlns="http://www.w3.org/2000/svg">
<g clip-path="url(#clip0_1210_3783)" class="svg-uiux">
<path d="M32.2143 4.94909L16.2871 20.876C17.0867 20.8956 17.8667 21.0265 18.61 21.2623C19.2608 21.4688 19.8826 21.7554 20.4643 22.1172C21.0016 22.4514 21.5054 22.8478 21.9638 23.3061C22.4262 23.7685 22.8207 24.2735 23.1512 24.8068C23.5158 25.3949 23.8002 26.0185 24.0046 26.6625C24.2439 27.4171 24.3734 28.1989 24.3929 28.9835L40.3207 13.0554C41.4035 11.9729 41.9998 10.5333 41.9998 9.00201C41.9998 7.47106 41.4034 6.0315 40.3207 4.94885C38.0862 2.71423 34.4495 2.71432 32.2143 4.94909Z" fill="#D8143A"/>
<path d="M40.321 4.94889L40.3208 4.94873C38.0862 2.71411 34.4493 2.71419 32.2141 4.94897L16.2871 20.876C17.0867 20.8955 17.8667 21.0264 18.61 21.2623C19.2608 21.4687 19.8826 21.7554 20.4643 22.1171C21.0016 22.4513 21.5054 22.8478 21.9638 23.3061C22.4262 23.7685 22.8207 24.2735 23.1512 24.8067C23.5158 25.3949 23.8002 26.0184 24.0046 26.6624C24.2439 27.417 24.3734 28.1988 24.3929 28.9834L40.3207 13.0555C41.4035 11.9729 41.9998 10.5333 41.9998 9.00205C41.9999 7.47102 41.4035 6.03162 40.321 4.94889Z" fill="#FF3F62"/>
<path d="M40.3208 4.94885C38.0862 2.71423 34.4493 2.71432 32.2141 4.94909L16.2871 20.876C17.0867 20.8956 17.8667 21.0265 18.61 21.2623C19.2608 21.4688 19.8826 21.7554 20.4643 22.1172C21.0016 22.4514 21.5054 22.8478 21.9638 23.3061L40.321 4.94893C40.321 4.94893 40.321 4.94885 40.3208 4.94885Z" fill="#D8143A"/>
<path d="M24.5369 28.8398C24.5175 28.0551 24.388 27.2735 24.1487 26.5188C23.9443 25.8748 23.6599 25.2512 23.2952 24.6631C22.9647 24.1299 22.5704 23.625 22.1079 23.1625L22.1077 23.1622C21.6491 22.704 21.1456 22.3077 20.6083 21.9735C20.0266 21.6118 19.4048 21.3251 18.754 21.1187C18.0107 20.8828 17.2306 20.7519 16.4311 20.7324C16.3614 20.7307 16.2919 20.7273 16.222 20.7273C13.9967 20.7273 11.9065 21.5922 10.3362 23.1621C8.98659 24.5121 7.18847 25.2553 5.2732 25.2553C4.35855 25.2553 3.46638 25.0855 2.62195 24.7504C2.00959 24.5078 1.31643 24.5963 0.785274 24.9846C0.25404 25.3729 -0.0408628 26.0066 0.00458254 26.6632C0.220161 29.7862 1.55637 32.7235 3.76711 34.9339C4.90751 36.0744 6.22444 36.9758 7.6567 37.6133C9.2961 38.3432 11.0865 38.7272 12.9373 38.7271C16.4046 38.7271 19.6614 37.3801 22.1076 34.934C23.7834 33.2581 24.5915 31.04 24.5369 28.8398Z" fill="#A78966"/>
<path d="M20.6083 21.9735C20.0266 21.6118 19.4048 21.3251 18.754 21.1187C18.0107 20.8828 17.2306 20.7519 16.4311 20.7324C16.3614 20.7307 16.2919 20.7273 16.222 20.7273C13.9967 20.7275 11.9065 21.5922 10.3362 23.1621C8.98659 24.5121 7.1883 25.2553 5.2732 25.2553C4.35855 25.2553 3.46638 25.0855 2.62195 24.7504C2.00959 24.5078 1.31643 24.5963 0.785274 24.9846C0.254039 25.3729 -0.0408628 26.0066 0.00458254 26.6632C0.220161 29.7862 1.55637 32.7235 3.76711 34.9339C4.90751 36.0744 6.22444 36.9758 7.6567 37.6132L22.1076 23.1623C21.6491 22.704 21.1455 22.3077 20.6083 21.9735Z" fill="#806749"/>
</g>
<defs>
<clipPath id="clip0_1210_3783">
<rect width="42" height="42" fill="white"/>
</clipPath>
</defs>
</svg>
