<svg width="48" height="48" viewBox="0 0 48 48" fill="none" xmlns="http://www.w3.org/2000/svg">
<path d="M27.75 30.75H20.25V38.25H27.75V30.75Z" fill="#3C5366"/>
<path d="M3 2.25H45C46.6568 2.25 48 3.59325 48 5.25V12.75C48 14.4068 46.6568 15.75 45 15.75H3C1.34325 15.75 0 14.4068 0 12.75V5.25C0 3.59325 1.34325 2.25 3 2.25Z" fill="#576D7E"/>
<path d="M3 17.25H45C46.6568 17.25 48 18.5932 48 20.25V27.75C48 29.4068 46.6568 30.75 45 30.75H3C1.34325 30.75 0 29.4068 0 27.75V20.25C0 18.5932 1.34325 17.25 3 17.25Z" fill="#576D7E"/>
<path d="M43.5 3.75H4.5C3.67125 3.75 3 3.07875 3 2.25H45C45 3.07875 44.3288 3.75 43.5 3.75Z" fill="#748B9E"/>
<path d="M43.5 18.75H4.5C3.67125 18.75 3 18.0788 3 17.25H45C45 18.0788 44.3288 18.75 43.5 18.75Z" fill="#748B9E"/>
<path d="M46.5 6.75V12.75C46.5 13.5788 45.8288 14.25 45 14.25H4.5C3.67125 14.25 3 14.9212 3 15.75H45C46.6568 15.75 48 14.4068 48 12.75V5.25C47.1712 5.25 46.5 5.92125 46.5 6.75Z" fill="#3F556B"/>
<path d="M46.5 21.75V27.75C46.5 28.5788 45.8288 29.25 45 29.25H4.5C3.67125 29.25 3 29.9212 3 30.75H45C46.6568 30.75 48 29.4068 48 27.75V20.25C47.1712 20.25 46.5 20.9212 46.5 21.75Z" fill="#3F556B"/>
<path d="M27.75 15.75H20.25V17.25H27.75V15.75Z" fill="#3C5366"/>
<path d="M27.75 15.75H25.5V17.25H27.75V15.75Z" fill="#35495C"/>
<path d="M25.5 30.75H20.25C20.25 31.5788 20.9212 32.25 21.75 32.25H24.75C25.5788 32.25 26.25 32.9212 26.25 33.75V38.25H27.75V30.75H25.5Z" fill="#35495C"/>
<path d="M12 24.75C12.4142 24.75 12.75 24.4142 12.75 24C12.75 23.5858 12.4142 23.25 12 23.25C11.5858 23.25 11.25 23.5858 11.25 24C11.25 24.4142 11.5858 24.75 12 24.75Z" fill="#3CB54A"/>
<path d="M9 24.75C9.41421 24.75 9.75 24.4142 9.75 24C9.75 23.5858 9.41421 23.25 9 23.25C8.58579 23.25 8.25 23.5858 8.25 24C8.25 24.4142 8.58579 24.75 9 24.75Z" fill="#F04B4D"/>
<path d="M6 24.75C6.41421 24.75 6.75 24.4142 6.75 24C6.75 23.5858 6.41421 23.25 6 23.25C5.58579 23.25 5.25 23.5858 5.25 24C5.25 24.4142 5.58579 24.75 6 24.75Z" fill="#F7B84E"/>
<path d="M12 9.75C12.4142 9.75 12.75 9.41421 12.75 9C12.75 8.58579 12.4142 8.25 12 8.25C11.5858 8.25 11.25 8.58579 11.25 9C11.25 9.41421 11.5858 9.75 12 9.75Z" fill="#3CB54A"/>
<path d="M9 9.75C9.41421 9.75 9.75 9.41421 9.75 9C9.75 8.58579 9.41421 8.25 9 8.25C8.58579 8.25 8.25 8.58579 8.25 9C8.25 9.41421 8.58579 9.75 9 9.75Z" fill="#F04B4D"/>
<path d="M6 9.75C6.41421 9.75 6.75 9.41421 6.75 9C6.75 8.58579 6.41421 8.25 6 8.25C5.58579 8.25 5.25 8.58579 5.25 9C5.25 9.41421 5.58579 9.75 6 9.75Z" fill="#F7B84E"/>
<path d="M42 7.5H33C32.1712 7.5 31.5 8.17125 31.5 9C31.5 9.82875 32.1712 10.5 33 10.5H42C42.8288 10.5 43.5 9.82875 43.5 9C43.5 8.17125 42.8288 7.5 42 7.5Z" fill="#3F556B"/>
<path d="M42 22.5H33C32.1712 22.5 31.5 23.1712 31.5 24C31.5 24.8288 32.1712 25.5 33 25.5H42C42.8288 25.5 43.5 24.8288 43.5 24C43.5 23.1712 42.8288 22.5 42 22.5Z" fill="#3F556B"/>
<path d="M27 7.5H18C17.1712 7.5 16.5 8.17125 16.5 9C16.5 9.82875 17.1712 10.5 18 10.5H27C27.8288 10.5 28.5 9.82875 28.5 9C28.5 8.17125 27.8288 7.5 27 7.5Z" fill="#3F556B"/>
<path d="M27 22.5H18C17.1712 22.5 16.5 23.1712 16.5 24C16.5 24.8288 17.1712 25.5 18 25.5H27C27.8288 25.5 28.5 24.8288 28.5 24C28.5 23.1712 27.8288 22.5 27 22.5Z" fill="#3F556B"/>
<path d="M39.75 43.5H8.25C7.42125 43.5 6.75 42.8288 6.75 42C6.75 41.1712 7.42125 40.5 8.25 40.5H39.75C40.5788 40.5 41.25 41.1712 41.25 42C41.25 42.8288 40.5788 43.5 39.75 43.5Z" fill="#3C5366"/>
<path d="M8.25 43.5H39.75C40.5788 43.5 41.25 42.8288 41.25 42H6.75C6.75 42.8288 7.42125 43.5 8.25 43.5Z" fill="#35495C"/>
<path d="M18.75 38.25H29.25C29.664 38.25 30 38.586 30 39V45C30 45.414 29.664 45.75 29.25 45.75H18.75C18.336 45.75 18 45.414 18 45V39C18 38.586 18.336 38.25 18.75 38.25Z" fill="#123247"/>
</svg>
