<svg width="704" height="501" viewBox="0 0 704 501" fill="none" xmlns="http://www.w3.org/2000/svg">
<path fill-rule="evenodd" clip-rule="evenodd" d="M281.542 4.90165C352.012 -4.09056 424.144 -0.688382 487.842 30.7897C546.716 59.8837 576.379 121.347 618.74 171.538C667.016 228.738 736.977 271.603 752.829 344.758C770.58 426.677 767.469 526.424 708.555 586.02C650.069 645.182 548.434 605.567 469.388 631.479C386.882 658.526 322.664 764.807 239.516 739.777C157.101 714.967 152.903 598.303 110.436 523.421C73.0073 457.422 15.6417 402.818 5.76002 327.589C-5.18338 244.278 -1.56561 150.139 53.0148 86.2749C106.872 23.2573 199.319 15.3936 281.542 4.90165Z" fill="#003C50"/>
</svg>
