<svg width="50" height="50" viewBox="0 0 50 50" fill="none" xmlns="http://www.w3.org/2000/svg">
<g clip-path="url(#clip0_1210_3720)">
<path d="M46.694 2.80957H3.30585C1.48763 2.80957 0 4.2972 0 6.11542V31.2553L24.9999 33.4592L49.9999 31.2553V6.11542C49.9999 4.2972 48.5123 2.80957 46.694 2.80957Z" fill="#F2EBD9"/>
<path d="M37.7762 23.5417C37.7751 23.5428 33.2648 26.8476 33.2648 26.8476H29.959V7.21741H45.5923V26.8476H42.2865L37.7762 23.5417Z" fill="white"/>
<path d="M33.2656 21.3553V26.8474H37.7765L38.8784 19.345L33.2656 21.3553Z" fill="#98D9D5"/>
<path d="M37.7754 19.345V26.8474H42.2862V21.3553L37.7754 19.345Z" fill="#6DA8D6"/>
<path d="M39.6552 15.0334C39.6552 15.0346 35.8965 15.0346 35.8965 15.0346C35.8965 15.0334 39.6552 15.0334 39.6552 15.0334Z" fill="#FFCC75"/>
<path d="M37.7754 10.5232L39.6542 15.0335C39.6542 15.0335 37.7743 10.5243 37.7754 10.5232Z" fill="#98D9D5"/>
<path d="M29.9586 38.4407H20.041V46.3641H29.9586V38.4407Z" fill="#F2EBD9"/>
<path d="M34.3663 47.1906H15.6331C15.1766 47.1906 14.8066 46.8206 14.8066 46.3642C14.8066 45.9078 15.1766 45.5377 15.6331 45.5377H34.3663C34.8228 45.5377 35.1927 45.9078 35.1927 46.3642C35.1927 46.8206 34.8228 47.1906 34.3663 47.1906Z" fill="#98D9D5"/>
<path d="M0 31.2548V35.1347C0 36.9529 1.48763 38.4406 3.30585 38.4406H46.694C48.5123 38.4406 49.9999 36.9529 49.9999 35.1347V31.2548H0Z" fill="#98D9D5"/>
<path d="M25.621 8.0438H4.40849C3.95196 8.0438 3.58203 7.67376 3.58203 7.21733C3.58203 6.7609 3.95196 6.39087 4.40849 6.39087H25.621C26.0776 6.39087 26.4475 6.7609 26.4475 7.21733C26.4475 7.67376 26.0776 8.0438 25.621 8.0438Z" fill="#6DA8D6"/>
<path d="M25.621 11.9697H4.40849C3.95196 11.9697 3.58203 11.5997 3.58203 11.1432C3.58203 10.6868 3.95196 10.3168 4.40849 10.3168H25.621C26.0776 10.3168 26.4475 10.6868 26.4475 11.1432C26.4475 11.5997 26.0776 11.9697 25.621 11.9697Z" fill="#6DA8D6"/>
<path d="M15.0148 15.8957H4.40849C3.95196 15.8957 3.58203 15.5257 3.58203 15.0693C3.58203 14.6128 3.95196 14.2428 4.40849 14.2428H15.0148C15.4713 14.2428 15.8412 14.6128 15.8412 15.0693C15.8412 15.5257 15.4713 15.8957 15.0148 15.8957Z" fill="#6DA8D6"/>
<path d="M25.621 19.8218H4.40849C3.95196 19.8218 3.58203 19.4517 3.58203 18.9953C3.58203 18.5389 3.95196 18.1688 4.40849 18.1688H25.621C26.0776 18.1688 26.4475 18.5389 26.4475 18.9953C26.4475 19.4517 26.0776 19.8218 25.621 19.8218Z" fill="#6DA8D6"/>
<path d="M25.621 23.7478H4.40849C3.95196 23.7478 3.58203 23.3777 3.58203 22.9213C3.58203 22.4649 3.95196 22.0948 4.40849 22.0948H25.621C26.0776 22.0948 26.4475 22.4649 26.4475 22.9213C26.4475 23.3777 26.0776 23.7478 25.621 23.7478Z" fill="#6DA8D6"/>
<path d="M15.0148 27.6739H4.40849C3.95196 27.6739 3.58203 27.3039 3.58203 26.8475C3.58203 26.391 3.95196 26.021 4.40849 26.021H15.0148C15.4713 26.021 15.8412 26.391 15.8412 26.8475C15.8412 27.3039 15.4713 27.6739 15.0148 27.6739Z" fill="#6DA8D6"/>
<path d="M37.776 10.5232L35.8965 15.034L37.776 16.136L39.6556 15.034L37.776 10.5232Z" fill="#98D9D5"/>
<path d="M33.2656 21.3553C33.7721 21.6473 34.3737 21.8172 35.0198 21.8172C36.1809 21.8172 37.1995 21.27 37.7765 20.4471C38.3533 21.27 39.372 21.8172 40.5331 21.8172C41.1792 21.8172 41.7808 21.6473 42.2873 21.3553V21.3492L39.6559 15.0341H35.897L33.2656 21.3492V21.3553Z" fill="#FFCC75"/>
</g>
<defs>
<clipPath id="clip0_1210_3720">
<rect width="50" height="50" fill="white"/>
</clipPath>
</defs>
</svg>
