<svg width="1305" height="162" viewBox="0 0 1305 162" fill="none" xmlns="http://www.w3.org/2000/svg">
<path d="M1223.8 2.11084H0V159.529H1223.8C1245.49 159.487 1265.1 150.702 1279.34 136.47C1293.59 122.238 1302.39 102.558 1302.39 80.8303C1302.39 37.3952 1267.22 2.17419 1223.8 2.11084Z" fill="#0D1114"/>
<path d="M1302.4 80.8313C1302.4 102.559 1293.59 122.239 1279.34 136.471C1265.11 150.703 1245.49 159.488 1223.81 159.53H1223.68C1180.27 159.466 1145.11 124.245 1145.11 80.8313C1145.11 37.3962 1180.27 2.17516 1223.68 2.11182H1223.81C1267.22 2.17516 1302.4 37.3962 1302.4 80.8313Z" fill="#0D1114"/>
<path d="M1223.8 161.641C1179.19 161.578 1142.99 125.322 1142.99 80.8311C1142.99 36.3191 1179.19 0.0633472 1223.68 0C1268.32 0.0633472 1304.51 36.3191 1304.51 80.8311C1304.51 102.432 1296.1 122.725 1280.84 137.97C1265.61 153.195 1245.36 161.599 1223.8 161.641ZM1223.8 4.22315C1181.53 4.2865 1147.22 38.6418 1147.22 80.8311C1147.22 122.999 1181.51 157.355 1223.68 157.418C1244.22 157.376 1263.42 149.415 1277.84 134.972C1292.3 120.529 1300.29 101.292 1300.29 80.8311C1300.29 38.6629 1265.97 4.2865 1223.8 4.22315Z" fill="#49A18B"/>
</svg>
