<svg width="252" height="252" viewBox="0 0 252 252" fill="none" xmlns="http://www.w3.org/2000/svg" class="svg-envelope">
<g clip-path="url(#clip0_1218_537)">
<g id="envelope-lid-open">
    <path d="M9.9662e-06 116L104.169 220.727C116.475 233.091 135.537 233.091 147.843 220.727L252 116L9.9662e-06 116Z" fill="#1860A5"/>
</g>
<g id="envelope-letter">
    <path d="M125.931 293.439L225.862 238.338V111H26V238.338L125.931 293.439Z" fill="#EAEAEA"/>
    <path d="M143.31 154.448H117.241C114.839 154.448 112.896 152.506 112.896 150.104C112.896 147.701 114.839 145.759 117.241 145.759H143.31C145.713 145.759 147.655 147.701 147.655 150.104C147.655 152.506 145.713 154.448 143.31 154.448Z" fill="#4BBA9E"/>
    <path d="M182.415 219.621H152.001C149.598 219.621 147.656 217.679 147.656 215.276C147.656 212.873 149.598 210.931 152.001 210.931H182.415C184.818 210.931 186.76 212.873 186.76 215.276C186.76 217.679 184.818 219.621 182.415 219.621Z" fill="#4BBA9E"/>
    <path d="M95.5182 184.862H73.794C71.3914 184.862 69.4492 182.92 69.4492 180.517C69.4492 178.115 71.3914 176.172 73.794 176.172H95.5182C97.9209 176.172 99.863 178.115 99.863 180.517C99.863 182.92 97.9209 184.862 95.5182 184.862Z" fill="#4BBA9E"/>
    <path d="M165.035 184.862H130.276C127.874 184.862 125.932 182.92 125.932 180.517C125.932 178.115 127.874 176.172 130.276 176.172H165.035C167.438 176.172 169.38 178.115 169.38 180.517C169.38 182.92 167.438 184.862 165.035 184.862Z" fill="#4BBA9E"/>
    <path d="M112.898 184.862C111.768 184.862 110.634 184.384 109.813 183.602C109.026 182.776 108.553 181.647 108.553 180.517C108.553 179.387 109.026 178.253 109.813 177.432C111.42 175.825 114.375 175.825 115.982 177.432C116.764 178.253 117.242 179.387 117.242 180.517C117.242 181.647 116.764 182.776 115.982 183.602C115.157 184.384 114.027 184.862 112.898 184.862Z" fill="#4BBA9E"/>
    <path d="M134.621 219.621H91.173C88.7703 219.621 86.8281 217.679 86.8281 215.276C86.8281 212.873 88.7703 210.931 91.173 210.931H134.621C137.024 210.931 138.966 212.873 138.966 215.276C138.966 217.679 137.024 219.621 134.621 219.621Z" fill="#4BBA9E"/>
    <path d="M73.794 219.621C72.6644 219.621 71.5304 219.143 70.7092 218.361C69.9228 217.535 69.4492 216.406 69.4492 215.276C69.4492 214.098 69.9228 213.012 70.7092 212.191C72.3168 210.583 75.2278 210.583 76.8789 212.191C77.6609 213.012 78.1389 214.146 78.1389 215.276C78.1389 216.406 77.6609 217.535 76.8789 218.361C76.0533 219.143 74.9237 219.621 73.794 219.621Z" fill="#4BBA9E"/>
    <path d="M182.415 184.862C181.285 184.862 180.151 184.384 179.33 183.602C178.544 182.776 178.07 181.647 178.07 180.517C178.07 179.387 178.544 178.253 179.33 177.432C180.981 175.825 183.892 175.825 185.5 177.432C186.282 178.253 186.76 179.387 186.76 180.517C186.76 181.647 186.282 182.776 185.5 183.602C184.674 184.384 183.545 184.862 182.415 184.862Z" fill="#4BBA9E"/>
    <path d="M95.5182 254.379H73.794C71.3914 254.379 69.4492 252.437 69.4492 250.034C69.4492 247.632 71.3914 245.689 73.794 245.689H95.5182C97.9209 245.689 99.863 247.632 99.863 250.034C99.863 252.437 97.9209 254.379 95.5182 254.379Z" fill="#4BBA9E"/>
    <path d="M165.035 254.379H130.276C127.874 254.379 125.932 252.437 125.932 250.034C125.932 247.632 127.874 245.689 130.276 245.689H165.035C167.438 245.689 169.38 247.632 169.38 250.034C169.38 252.437 167.438 254.379 165.035 254.379Z" fill="#4BBA9E"/>
    <path d="M112.898 254.379C111.72 254.379 110.634 253.901 109.813 253.119C109.026 252.294 108.553 251.164 108.553 250.035C108.553 248.857 109.026 247.732 109.813 246.95C111.373 245.386 114.375 245.342 115.982 246.95C116.764 247.732 117.242 248.857 117.242 250.035C117.242 251.164 116.764 252.294 115.982 253.119C115.157 253.901 114.027 254.379 112.898 254.379Z" fill="#4BBA9E"/>
    <path d="M182.415 254.379C181.238 254.379 180.151 253.901 179.33 253.119C178.544 252.294 178.07 251.164 178.07 250.035C178.07 248.857 178.544 247.732 179.33 246.95C180.89 245.386 183.892 245.342 185.5 246.95C186.282 247.732 186.76 248.857 186.76 250.035C186.76 251.164 186.282 252.294 185.5 253.119C184.674 253.901 183.545 254.379 182.415 254.379Z" fill="#4BBA9E"/>
</g>

<path d="M225.931 113.27V127.647L126 182.748L26.069 127.647V113.27H0V252.309H252V113.27L225.931 113.27Z" fill="#1860A5"/>
<g id="envelope-body">
    <path d="M0.395379 113.492L250.271 251.27C250.127 251.826 250.145 251.753 250.001 252.309H0.560483C0.252 252.309 0 252.057 0 251.748V113.726C0 113.522 0.217241 113.396 0.395379 113.492Z" fill="#282828"/>
    <path d="M251.605 113.492L126 182.748L250.271 251.27C250.127 251.822 250.145 251.757 250.001 252.309H251.44C251.748 252.309 252 252.057 252 251.748V113.726C252 113.522 251.783 113.396 251.605 113.492Z" fill="#2A3A4A"/>
    <path d="M0.395379 113.492L250.271 251.27C250.127 251.826 250.145 251.753 250.001 252.309H0.560483C0.252 252.309 0 252.057 0 251.748V113.726C0 113.522 0.217241 113.396 0.395379 113.492Z" fill="#1D262F"/>
</g>
<g id="envelope-lid-closed">
    <path d="M9.9662e-06 113L104.169 217.727C116.475 230.091 135.537 230.091 147.843 217.727L252 113L9.9662e-06 113Z" fill="#1860A5"/>
</g>
</g>
<defs>
<clipPath id="clip0_1218_537">
<rect width="252" height="252" fill="white"/>
</clipPath>
</defs>
</svg>
